<svg version="1.1" xmlns="http://www.w3.org/2000/svg" xmlns:xlink="http://www.w3.org/1999/xlink" width="312.7725" height="160.08467" viewBox="0,0,312.7725,160.08467"><defs><linearGradient x1="158.64887" y1="89.99985" x2="158.64887" y2="250.08453" gradientUnits="userSpaceOnUse" id="color-1"><stop offset="0" stop-color="#172aff"/><stop offset="1" stop-color="#508cf2"/></linearGradient></defs><g transform="translate(-78.63018,-89.99985)"><g data-paper-data="{&quot;isPaintingLayer&quot;:true}" fill-rule="nonzero" stroke-linecap="butt" stroke-linejoin="miter" stroke-miterlimit="10" stroke-dasharray="" stroke-dashoffset="0" style="mix-blend-mode: normal"><path d="M158.66666,90c74.74911,-0.01336 80.08176,0.69112 80,81c-0.07856,77.16644 -1.756,78.38801 -80,79c-72.15639,0.56437 -79.89281,0.59818 -80,-79.66667c-0.10036,-75.14629 -3.22836,-80.31846 80,-80.33333z" fill="url(#color-1)" stroke="none" stroke-width="0"/><path d="M212.81155,143.26921c0,6.07513 -1.567,11 -3.5,11c-1.933,0 -3.5,-4.92487 -3.5,-11c0,-6.07513 1.56701,-11 3.5,-11c1.933,0 3.5,4.92487 3.5,11z" fill="#ffffff" stroke="#000000" stroke-width="0"/><path d="M98.38728,187.22081c9.48081,-21.56831 34.65109,-31.36717 56.2194,-21.88636c2.94042,1.29252 5.66209,2.87666 8.14599,4.70351c1.34019,0.98569 1.98904,4.70936 1.16264,5.58737c-1.86271,1.979 -3.42518,4.30414 -4.58126,6.93414c-5.44247,12.38131 0.18258,26.83033 12.56388,32.27279c2.09252,0.91981 6.55827,2.76259 3.85601,8.40294c-10.17951,21.24746 -33.912,29.68579 -55.48031,20.20498c-21.56831,-9.48081 -31.36717,-34.65109 -21.88636,-56.2194zM126.83658,189.90524c4.12711,1.81416 8.94344,-0.06085 10.7576,-4.18796c1.81416,-4.12711 -0.06085,-8.94344 -4.18796,-10.7576c-4.12711,-1.81416 -8.94344,0.06085 -10.7576,4.18796c-1.81416,4.12711 0.06085,8.94344 4.18796,10.7576zM113.90359,221.2882c4.12711,1.81416 8.94344,-0.06085 10.7576,-4.18796c1.81416,-4.12711 -0.06085,-8.94344 -4.18796,-10.7576c-4.12711,-1.81416 -8.94344,0.06085 -10.7576,4.18796c-1.81416,4.12711 0.06085,8.94344 4.18796,10.7576zM142.41419,233.30343c4.12711,1.81416 8.94344,-0.06085 10.7576,-4.18796c1.81416,-4.12711 -0.06085,-8.94344 -4.18796,-10.7576c-4.12711,-1.81416 -8.94344,0.06085 -10.7576,4.18796c-1.81416,4.12711 0.06085,8.94344 4.18796,10.7576z" fill="#ffffff" stroke="none" stroke-width="0"/><path d="M168.63427,99.21859c1.56269,-0.53053 4.13121,-1.71494 4.13121,-1.71494c0,0 3.56091,4.32342 4.64043,6.40943c0.56827,1.09809 3.84351,6.6887 3.84351,6.6887l-4.10464,2.97065c0,0 -3.39469,-2.57331 -3.9361,-2.21035c-2.53551,1.69984 -2.47747,2.21894 -4.7801,4.20591c-0.69317,0.59815 -1.34944,1.24993 -2.03455,1.86164c1.30068,1.70485 20.96354,33.51234 20.96354,33.51234l-9.22576,6.6112l-22.1909,-33.22897c0,0 -7.99855,5.69236 -9.28368,5.05516c-2.19039,-1.08604 -2.13442,-6.02793 -1.70563,-7.8923c0.21164,-0.92018 1.03783,-4.71641 1.44339,-5.67594c1.57234,-3.72013 7.3776,-5.87962 10.64754,-7.83887c2.45669,-1.47196 9.39354,-5.17987 9.39354,-5.17987c0,0 1.39664,-3.30166 2.19819,-3.57379z" fill="#ffffff" stroke="none" stroke-width="0.5"/><path d="M208.86271,147.9407l-0.1414,-9.0806l20.95607,4.21507z" fill="#ffffff" stroke="none" stroke-width="0"/><text transform="translate(252.29654,168.26375) scale(1.23205,1.23205)" font-size="40" xml:space="preserve" fill="#ffffff" fill-rule="nonzero" stroke="none" stroke-width="1" stroke-linecap="butt" stroke-linejoin="miter" stroke-miterlimit="10" stroke-dasharray="" stroke-dashoffset="0" font-family="&quot;ヒラギノ角ゴ Pro W3&quot;, &quot;Hiragino Kaku Gothic Pro&quot;, Osaka, &quot;メイリオ&quot;, Meiryo, &quot;ＭＳ Ｐゴシック&quot;, &quot;MS PGothic&quot;" font-weight="normal" text-anchor="start" style="mix-blend-mode: normal"><tspan x="0" dy="0">Crisp</tspan><tspan x="0" dy="46.15px">DevKit</tspan></text><path d="M206.78605,170.71654c4.86134,3.64343 7.86246,7.85094 6.70318,9.39773c-1.15927,1.54679 -6.03995,-0.15288 -10.90129,-3.79631c-4.86134,-3.64343 -7.86246,-7.85094 -6.70318,-9.39773c1.15927,-1.54679 6.03995,0.15288 10.90129,3.79631z" fill="#ffffff" stroke="#000000" stroke-width="0"/><path d="M208.15596,176.67804l-7.35112,-5.33275l15.94088,-14.24121z" fill="#ffffff" stroke="none" stroke-width="0"/><path d="M227.39536,164.68407c-3.7995,4.74036 -8.10232,7.60315 -9.61062,6.39422c-1.5083,-1.20893 0.34909,-6.03179 4.14859,-10.77215c3.7995,-4.74036 8.10232,-7.60315 9.61062,-6.39422c1.5083,1.20893 -0.34909,6.03179 -4.14859,10.77215z" fill="#ffffff" stroke="#000000" stroke-width="0"/><path d="M221.39249,165.85951l5.56884,-7.17393l13.71561,16.39529z" fill="#ffffff" stroke="none" stroke-width="0"/><path d="M182.72897,192.1244c0,2.34721 -1.79086,4.25 -4,4.25c-2.20914,0 -4,-1.90279 -4,-4.25c0,-2.34721 1.79086,-4.25 4,-4.25c2.20914,0 4,1.90279 4,4.25z" fill="#ffffff" stroke="none" stroke-width="0"/><path d="M184.72897,216.3744c0,-1.38071 1.11929,-2.5 2.5,-2.5c1.38071,0 2.5,1.11929 2.5,2.5c0,1.38071 -1.11929,2.5 -2.5,2.5c-1.38071,0 -2.5,-1.11929 -2.5,-2.5z" fill="#ffffff" stroke="none" stroke-width="0"/><path d="M156.22896,160.6244c0,-0.9665 0.7835,-1.75 1.75,-1.75c0.9665,0 1.75,0.7835 1.75,1.75c0,0.9665 -0.7835,1.75 -1.75,1.75c-0.9665,0 -1.75,-0.7835 -1.75,-1.75z" fill="#ffffff" stroke="none" stroke-width="0"/><path d="M165.72896,196.1244c0,-0.69036 0.55964,-1.25 1.25,-1.25c0.69036,0 1.25,0.55964 1.25,1.25c0,0.69036 -0.55964,1.25 -1.25,1.25c-0.69036,0 -1.25,-0.55964 -1.25,-1.25z" fill="#ffffff" stroke="none" stroke-width="0"/></g></g></svg>
